/* XPM */
static char *result[] = {
/* columns rows colors chars-per-pixel */
"64 64 242 2 ",
"   c #020202",
".  c #0C0001",
"X  c #000A02",
"o  c #01010B",
"O  c #0C030D",
"+  c #030C0B",
"@  c #0A0908",
"#  c #140100",
"$  c #170507",
"%  c #1B0001",
"&  c #0B100F",
"*  c #030113",
"=  c #070318",
"-  c #230002",
";  c #3D2F11",
":  c #311E20",
">  c #392826",
",  c #39382C",
"<  c #3A2D35",
"1  c #283638",
"2  c #383437",
"3  c #3C3932",
"4  c #46191F",
"5  c #6C1E1F",
"6  c #472D1D",
"7  c #57271D",
"8  c #411C2B",
"9  c #492724",
"0  c #4B2E26",
"q  c #422B2D",
"w  c #4B2B2D",
"e  c #552A26",
"r  c #43322D",
"t  c #48372A",
"y  c #57342B",
"u  c #482A33",
"i  c #592F31",
"p  c #423433",
"a  c #4A3738",
"s  c #543638",
"d  c #672729",
"f  c #75312E",
"g  c #693738",
"h  c #374E0C",
"j  c #334329",
"k  c #364834",
"l  c #454A1C",
"z  c #454229",
"x  c #46443C",
"c  c #5A4738",
"v  c #72532F",
"b  c #694639",
"n  c #78473A",
"m  c #696337",
"M  c #3B2B46",
"N  c #2F3745",
"B  c #373A45",
"V  c #462B47",
"C  c #483945",
"Z  c #54344A",
"A  c #743D4A",
"S  c #693E51",
"D  c #5A3B63",
"F  c #35454F",
"G  c #39685D",
"H  c #387070",
"J  c #494444",
"K  c #5D4348",
"L  c #524D4F",
"P  c #684847",
"I  c #774747",
"U  c #665C48",
"Y  c #775547",
"T  c #674D5B",
"R  c #774F52",
"E  c #685559",
"W  c #7A5553",
"Q  c #456157",
"!  c #6F635A",
"~  c #5A5E69",
"^  c #655760",
"/  c #765668",
"(  c #4C6B6A",
")  c #586667",
"_  c #43726A",
"`  c #746672",
"'  c #8F393C",
"]  c #AC3034",
"[  c #B83939",
"{  c #86531E",
"}  c #AF4C16",
"|  c #8B4B2F",
" . c #A9452A",
".. c #AA483C",
"X. c #BB4B39",
"o. c #B7513C",
"O. c #C4433E",
"+. c #833442",
"@. c #A83C46",
"#. c #BD3E42",
"$. c #894C4E",
"%. c #99484C",
"&. c #964856",
"*. c #875659",
"=. c #975658",
"-. c #AA4847",
";. c #B74948",
":. c #A8514F",
">. c #B75548",
",. c #A54757",
"<. c #B34C51",
"1. c #A75657",
"2. c #B55357",
"3. c #91615C",
"4. c #955D64",
"5. c #885474",
"6. c #9B5C75",
"7. c #A55969",
"8. c #B45062",
"9. c #996163",
"0. c #AC6B72",
"q. c #C3544A",
"w. c #C3524F",
"e. c #CE685B",
"r. c #DC6D57",
"t. c #DD755D",
"y. c #E8655B",
"u. c #E46B5C",
"i. c #EB6C5C",
"p. c #F0685D",
"a. c #E3735C",
"s. c #E7745C",
"d. c #DA6B6A",
"f. c #CA7469",
"g. c #D97768",
"h. c #DC746B",
"j. c #D36F71",
"k. c #C97976",
"l. c #D67975",
"z. c #E66A66",
"x. c #EE6D65",
"c. c #F46866",
"v. c #F46C64",
"b. c #E27464",
"n. c #E2746C",
"m. c #EB746B",
"M. c #E87968",
"N. c #F47367",
"B. c #F26C71",
"V. c #E67574",
"C. c #A9931A",
"Z. c #B29035",
"A. c #ABA031",
"S. c #CB912D",
"D. c #CBA43D",
"F. c #B68D77",
"G. c #C69769",
"H. c #CD8874",
"J. c #C7987A",
"K. c #D59D79",
"L. c #C9A779",
"P. c #D5A378",
"I. c #EAA37E",
"U. c #387281",
"Y. c #996C88",
"T. c #CC7E85",
"R. c #BB9385",
"E. c #BDA38A",
"W. c #BAA199",
"Q. c #AC9DAA",
"!. c #B5A3AC",
"~. c #B8A9B7",
"^. c #CB8483",
"/. c #C89A8B",
"(. c #D59D88",
"). c #E89A9C",
"_. c #C8A487",
"`. c #D6A787",
"'. c #D6B38C",
"]. c #C8A896",
"[. c #D2AA94",
"{. c #D5A8A7",
"}. c #C9A7B9",
"|. c #D2A7B7",
" X c #DCB1B9",
".X c #E9A9B6",
"XX c #F4B1B1",
"oX c #E7CAA4",
"OX c #EAC9A9",
"+X c #F5CAAA",
"@X c #EFD2AE",
"#X c #F2D4AA",
"$X c #EECCB6",
"%X c #FDCBB5",
"&X c #FACBB9",
"*X c #EDD3B9",
"=X c #F8D6B6",
"-X c #FFE1B9",
";X c #BCABC7",
":X c #A9BACD",
">X c #B8B4C9",
",X c #A6B9D8",
"<X c #B8B7D8",
"1X c #B4BDE5",
"2X c #CAA9C5",
"3X c #D5ACC2",
"4X c #C4B5CA",
"5X c #D5B7CA",
"6X c #C2B8D8",
"7X c #D6B5D5",
"8X c #E7B0C2",
"9X c #BBC0D8",
"0X c #ADC4E3",
"qX c #B4C2E8",
"wX c #C8C5D1",
"eX c #FBCBC3",
"rX c #F8D5C6",
"tX c #F1CFD2",
"yX c #FEDDD3",
"uX c #FBDEDA",
"iX c #FFE9C3",
"pX c #FFE5D7",
"aX c #EFDBEC",
"sX c #D9EDFA",
"dX c #ECE9EB",
"fX c #F9E8E7",
"gX c #FFFEFFFF",
"hX c #FFFEFFFF",
"jX c #FFFEFFFF",
"kX c #FFFEFFFF",
"lX c #FFFEFFFF",
"zX c #FFFEFFFF",
"xX c #FFFEFFFF",
"cX c #FFFEFFFF",
"vX c #FFFEFFFF",
"bX c #FFFEFFFF",
"nX c #FFFEFFFF",
"mX c #FFFEFFFF",
"MX c #FFFEFFFF",
"NX c #FFFEFFFF",
"BX c #FFFEFFFF",
"VX c #FFFEFFFF"
/* pixels */
"VXVXVXVXVXVXVXVXVXVXVXVXVXVXVXVXVXBXVXBXVXVXVXVXVXVXVXVXVXVXVXVXmXmXVXmXmXVXVXVXVXVXVXVXVXVXVXVXVXVXVXVXVXVXVXVXVXVXVXVXVXVXVXVX",
"VXVXVXVXVXVXVXVXVXVXVXVXVXVXVXVXVXVXVXVXVXVXVXVXVXVXVXVXVXVXVXNXbXVXNXVXVXNXVXVXVXVXVXVXVXNXVXVXVXVXVXVXVXVXVXVXVXVXVXVXVXVXVXVX",
"VXVXVXVXVXVXVXVXVXVXVXVXVXVXVXVXNXVXNXVXVXVXVXNXVXNXNXVXNXNXVXNXNXNXNXVXNXVXzXVXNXVXVXVXVXvXVXVXVXVXVXVXVXVXVXVXVXVXVXVXVXVXVXVX",
"VXVXVXVXVXVXVXVXVXVXVXVXVXVXVXVXVXVXVXVXzXNXNXVXNXVXNXNXVXNXNXVXVXNXVXNXVXMXVXlXVXVXVXvXVXmXmXmXVXVXVXVXVXVXVXVXVXVXVXVXVXVXVXVX",
"VXVXVXVXVXVXVXVXVXVXVXVXVXVXVXVXVXbXvXVXvXVXVXMXVXVXVXVXBXBXVXBXBXBXVXcXBXBXxXVXxXVXVXVXVXVXhXVXVXVXVXVXVXVXVXVXVXVXVXVXVXVXVXVX",
"VXVXVXVXVXVXVXVXVXVXVXVXVXVXVXVXVXVXVXVXVXvXVXVXBXBXBXBXBXBXBXBXVXvXVXVXVXBXcXBXVXVXVXVXjXmXbXmXVXVXVXVXVXVXVXVXVXVXVXVXVXVXVXVX",
"VXVXVXVXVXVXVXVXVXVXVXVXVXVXVXVXBXBXBXxXVXVXVXVX3 3 3 3 3 p p z a t , q a > VXMXVXBXvXVXVXVXmXvXVXVXVXVXVXVXVXVXVXVXVXVXVXVXVXVX",
"VXVXVXVXVXVXVXVXVXVXVXVXVXVXVXVXBXBXVXVXvXVXVXbXr 0 0 e e 7 7 7 7 7 7 9 9 w bXNXVXvXVXVXnXvXVXVXVXVXVXVXVXVXVXVXVXVXVXVXVXVXVXVX",
"VXVXVXVXVXVXVXVXVXVXVXVXVXVXVXVXMXVXVXMXC q 9 i F.k.k.H.j.h.h.h.d.l.l.H.^.R.e u > C dXVXVXBXBXBXVXVXVXVXVXVXVXVXVXVXVXVXVXVXVXVX",
"VXVXVXVXVXVXVXVXVXVXVXVXVXVXVXVXVXVXNXNX8 i d 5 k.l.g.b.m.x.x.x.m.u.m.d.l.l.5 d d u NXVXcXBXBXVXVXVXVXVXVXVXVXVXVXVXVXVXVXVXVXVX",
"VXVXmXVXVXVXVXVXVXVXVXVXVXVXVXVXBXVX< w 9.%.V.n.n.g.e.t.i.N.u.t.u.x.N.m.n.b.b.b.<.=.s B cXcXVXmXVXVXVXVXVXVXVXVXVXVXVXVXVXVXVXVX",
"VXmXVXVXVXVXVXVXVXVXVXVXVXBXVXVXVXVXp e =.>.n.y.i.M.a.s.i.p.r.s.s.i.p.z.a.b.i.i.w.&.u 2 BXBXVXbXVXVXVXVXVXVXVXVXVXVXVXVXVXVXVXVX",
"mXVXmXVXVXVXVXVXVXVXVXVXVXBXVXVXBXVX< e 1.w.z.N.y.i.i.N.p.c.v.N.N.x.c.v.b.b.s.i.w.,.i 2 VXVXVXmXVXVXVXVXVXVXVXVXVXVXVXVXVXVXVXVX",
"VXVXVXVXVXVXVXVXVXVXVXBXVXVXVXBXxXVXp i k.d.z.N.v.p.p.v.z.c.c.z.u.u.c.c.b.t.s.s.b.j.s 3 VXVXfXbXVXVXVXVXVXVXVXVXVXVXVXVXVXVXVXVX",
"VXmXVXVXVXVXVXVXVXVXVXVXVXVXVXVXVXVX> e l.V.z.i.p.p.p.N.d.n.B.B.M.n.c.c.t.t.t.s.h.l.y < NXNXNXVXVXVXVXVXVXVXVXVXVXVXVXVXVXVXVXVX",
"VXVXVXVXVXVXVXVXVXVXVXVXVXVXVXVXVXzXs d V.V.x.u.u.x.N.d.f.f.j.V.g.g.B.B.n.g.t.r.M.f.7 Z NXNXVXdXVXVXVXVXVXVXVXVXVXVXVXVXVXVXVXVX",
"VXVXVXVXVXVXVXVXVXVXVXVXVXVXVXVXB a 4 f e.x.m.s.a.M.h.0.(.F.k.H.k.j.d.z.h.M.s.a.s.d.f 4 u C dXVXVXVXVXVXVXVXVXVXVXVXVXVXVXVXVXVX",
"VXVXVXVXVXVXVXVXVXVXVXVXVXVXVXVXM q 9.1.;.q.r.a.b.n.k.H.rXyXrXyXpXXX).l.h.g.a.a.X.>.=.4.s 2 VXBXVXVXVXVXVXVXVXVXVXVXVXVXVXVXVXVX",
"VXVXVXVXVXVXVXVXVXVXvXVXVXVXVXVX2 a =.2.>.X.t.t.M.f.0.F.yXpXpXrXpXuXT.T.j.V.b.r.X.O.<.7.u 2 VXBXVXVXVXVXVXVXVXVXVXVXVXVXVXVXVXVX",
"VXVXVXVXVXVXVXVXVXVXVXVXvXVXVXVX  % &.<.>.o.X.X...1.XX{.jXyX=.3.yXfX|.).8.<.;.q.X.q.-.$.. + gXBXVXVXVXVXVXVXVXVXVXVXVXVXVXVXVXVX",
"VXVXVXVXVXVXVXVXVXvXVXVXVXVXVXvX@ # =.-...>...q.8.,.8X XtXaX=.4.fXuXwX|.7.8.,...X.w.;.7.  X nXVXVXVXVXVXVXVXVXVXVXVXVXVXVXVXVXVX",
"BXVXVXVXVXVXVXVXVXnXmXbXmXVXVXVX  . 9.:.>.>.-.2.&.&.8X3X6.6.&.=.*.` ~.5X6.,.8.1.-.;.<.4.  X mXmXVXVXVXVXVXVXVXVXVXVXVXVXVXVXVXVX",
"VXVXVXVXVXVXVXVXvXVXVXVXVXbXbXVX  $ *.$.1.-.2.1.6.Y.2X7X5.5.6.6./ ` >X4XY.5.*.=.:.:.1.*.X X mXmXVXVXVXVXVXVXVXVXVXVXVXVXVXVXVXVX",
"VXVXVXVXVXVXVXVXVXVXvXbXVXVXvXVX    a y %.1.XX.X2X6X<X6X2X7X|.8XtX}.6X6X;X7X8XXX1.%.d 9   @ fXmXVXVXVXVXVXVXVXVXVXVXVXVXVXVXVXVX",
"BXVXVXVXVXVXVXVXVXVXVXVXVXdXx < O O p t =.&..X|.;XqXqX1X0XwX;XwX5X2X6X<X<X6X}.{.=.=.e s     b q VXVXVXVXVXVXVXVXVXVXVXVXVXVXVXVX",
"VXVXVXBXVXVXVXVXVXvXVXmXmXVX, p # # a r 4.9.3X5X<X0X,X1X,X,X9X>X2X4X6X,X1X<X2X5X4.3.6 t . # 0 r VXVXVXVXVXVXVXVXVXVXVXVXVXVXVXVX",
"VXVXVXVXVXVXVXVXVXVXVXVXVXVX  . P.G.W E y i Z M <X<XlXsXsXsXsXzXfXzXlXlX:X<XV Z 9 e W Y K.J.. @ VXVXVXVXVXVXVXVXVXVXVXVXVXVXVXVX",
"VXVXVXVXVXVXVXVXVXVXVXVXVXVX  . G.K.R T u 8 V M 4X;XaXzXsXxXlXdXfXtXlXlX>X;XD V , t P | I.`.    VXVXVXVXVXVXVXVXVXVXVXVXVXVXVXVX",
"VXVXVXVXVXVXVXVXvXVXVXVXVXVX  $ P.J.V V E ! E E T 5.W P t > < C 2 C ^ ^ T / D / Q m t 6 H.J.. * VXVXVXVXVXVXVXVXVXVXVXVXVXVXVXVX",
"VXVXVXVXVXVXVXVXVXVXvXVXVXvX@ . /.].C N E c U U P R n Y 0 ; s > 3 2 T ^ T T / T m m ; 0 /./.  o VXVXVXVXVXVXVXVXVXVXVXVXVXVXVXVX",
"VXVXVXVXVXVXVXVXvXVXVXVXVXVXvXVX. # M a _._.U U ]._.e y _.[.`./.].W.s a Q.Q.R Y L.'.> a # # VXBXVXVXVXVXVXVXVXVXVXVXVXVXVXVXVXVX",
"VXVXVXVXVXVXVXVXVXVXvXVXVXvXVXvX* = M 0 L.P.v U E.E.6 0 /./.).`./.{.w 2 Q.Q.Y v L.F.a 2 . . VXVXVXVXVXVXVXVXVXVXVXVXVXVXVXVXVXVX",
"VXVXVXVXVXVXVXVXVXVXVXVXVXvXVXVXVXMX. - P.G.'.L.pXpX$ . =X%X%X%X%X%X# . dXzXE._.P.'.. * VXBXmXbXVXVXVXVXVXVXVXVXVXVXVXVXVXVXVXVX",
"VXVXVXVXVXVXVXVXVXVXVXvXVXVXvXVXnXVX. % `.P.G._.pXpX$ . -X+X%X&X%X+X- # fXpX].J.L.R.. o cXcXVXmXVXVXVXVXVXVXVXVXVXVXVXVXVXVXVXVX",
"VXVXVXVXVXVXVXVXVXVXVXVXVXVXVXVXkXkXbXbX% % _._.tXtX$X#X@X@XrXeX&X$X#X+XrXeX[./.# # vXBXnXnXVXVXVXVXVXVXVXVXVXVXVXVXVXVXVXVXVXVX",
"VXVXVXVXVXVXVXVXVXVXVXVXVXVXVXmXhXkXjXVX& . ].`.*X*X=X=X#X-X=XrXOXiXoX#X&XXX/.{.#   VXcXgXmXfXVXVXVXVXVXVXVXVXVXVXVXVXVXVXVXVXVX",
"VXVXVXVXVXVXVXVXVXVXVXVXVXVXVXmXkXnXmXBX*   P n J.'.OXOX=X#XJ.`.=XOX#X=X(.).| v . o VXBXkXkXVXbXVXVXVXVXVXVXVXVXVXVXVXVXVXVXVXVX",
"VXVXVXVXVXVXVXVXVXVXVXVXVXVXVXVXnXBXBXcX+   $.| `.[.rXrX*XOXP.P.=X@X*XrX(.(.{ v # . VXVXnXmXmXmXVXVXVXVXVXVXVXVXVXVXVXVXVXVXVXVX",
"VXVXVXVXVXVXVXVXVXVXVXVXVXVXVXVXBXBXo & 1 t Z.S.| I > 3 E.'.P.K.G.[.> p W | S.Z.l p * * vXVXmXmXVXVXVXVXVXVXVXVXVXVXVXVXVXVXVXVX",
"VXVXVXVXVXVXVXVXVXVXVXVXVXVXVXVXVXzXo + 1 t D.S.' $.a C W.].L.`.[.].C Z I | S.A.; x = = VXVXzXVXVXVXVXVXVXVXVXVXVXVXVXVXVXVXVXVX",
"VXVXVXVXVXVXVXVXVXVXVXVXVXVXVXVXP *.t k k l C.S.} | }.;X< : c ; ; p ~.2X,. .S.C.h j 1 J K K VXNXVXVXVXVXVXVXVXVXVXVXVXVXVXVXVXVX",
"VXVXVXVXVXVXVXVXVXVXVXVXVXVXVXmXI g y x j l Z.S.} X.{.3XV M 2 1 2 3 }.8X@. .S.A.h k x C Y P zXNXVXVXVXVXVXVXVXVXVXVXVXVXVXVXVXVX",
"VXVXVXVXVXVXVXVXVXVXmXbXNXNXP K &XrX/.].z j m { ]  .@.,.|.~.J N :X;X&.@.[  .{ m z t ]._.+X&XA S VXVXVXVXVXVXVXVXVXVXVXVXVXVXVXVX",
"VXVXVXVXBXVXVXVXVXVXVXNXzXmXK R *X&X[./.z , U Y -.#.#.@.{.~.B L :X;X8.] O...Y E t 6 _.L.OX&X$.A NXVXVXVXVXVXVXVXVXVXVXVXVXVXVXVX",
"VXVXVXVXVXVXBXVXVXvXVXVXzXbXK P =X=XeXeX% .   # ' ' @.%. XwXN B ;X2X,.[ ] ' .   $ # rX@X@X=Xb I VXVXVXVXVXVXVXVXVXVXVXVXVXVXVXVX",
"VXVXVXVXVXVXVXVXVXvXVXVXVXNXE c *X%X8XyX%   + . A +.&.&.!.~.F B ;X|.&.:.f g   * * . eXrX=XOX*.s mXVXVXVXVXVXVXVXVXVXVXVXVXVXVXVX",
"VXVXVXVXVXVXBXVXVXVXmXbXmXVXzXmXn n +.g $ o ( ) # % - # . & o O O O # # $ # ) ` * $ P I g b jXmXVXVXVXVXVXVXVXVXVXVXVXVXVXVXVXVX",
"VXVXVXVXVXVXBXVXvXVXVXVXVXzXmXmXb n I P o * ( ) o o . + X   O * = = + X X X ) ~ * O S I I Y mXMXVXVXVXVXVXVXVXVXVXVXVXVXVXVXVXVX",
"VXVXVXVXVXVXBXBXVXVXvXVXVXVXVXbXjXjXkXVX+ + F F F N Q _ G _ Q N H U.G ( j j J B   + nXmXkXdXVXVXVXVXVXVXVXVXVXVXVXVXVXVXVXVXVXVX",
"VXVXVXVXVXVXVXVXVXBXVXVXvXVXVXVXmXmXmXBXX + 2 Z a C ) G H H B F U.H _ Q x 0 s Z     nXnXBXVXNXNXVXVXVXVXVXVXVXVXVXVXVXVXVXVXVXVX",
"VXVXVXVXVXVXVXVXVXVXBXBXBXVXVXVXBXBXVXVX. - &.,.@.&.% X X + * * = = o   *.&.,.&.%   cXgXVXVXNXVXVXVXVXVXVXVXVXVXVXVXVXVXVXVXVXVX",
"VXVXVXVXVXVXVXVXBXVXVXVXVXVXVXBXcXBXBXVX# - &.,.,.=.% .   o * * = =   . =.%.&.&.# & gXmXVXbXVXVXVXVXVXVXVXVXVXVXVXVXVXVXVXVXVXVX",
"VXVXVXVXVXVXVXVXVXVXVXBXVXBXVXVXBXBXVXVXjXmX. . . $ kXjXVXVXzXNXNXNXVXmX. # % # VXlXVXVXvXmXmXmXVXVXVXVXVXVXVXVXVXVXVXVXVXVXVXVX",
"VXVXVXVXVXVXVXVXVXVXVXVXVXVXVXVXVXVXVXNXmXhXX X X X mXbXVXNXNXNXNXbXmXkX      o VXVXcXVXVXmXmXkXVXVXVXVXVXVXVXVXVXVXVXVXVXVXVXVX",
"mXmXVXVXmXVXVXVXVXVXVXVXVXVXVXBXBXcXdXVXbXmXmXnXnXnXmXVXNXVXVXVXVXmXnXmXVXVXVXVXxXcXBXVXVXjXkXmXVXVXVXVXVXVXVXVXVXVXVXVXVXVXVXVX",
"VXVXVXVXVXVXVXVXVXVXVXVXVXVXVXVXBXVXVXmXVXVXvXmXnXVXmXNXbXVXdXnXnXnXxXBXvXVXVXMXcXBXMXNXNXNXmXbXVXVXVXVXVXVXVXVXVXVXVXVXVXVXVXVX",
"mXVXVXVXVXVXVXVXVXVXVXVXVXVXVXVXVXvXVXVXVXmXVXMXVXMXVXVXVXnXnXnXBXVXVXvXVXbXmXVXVXVXVXNXNXNXBXBXVXVXVXVXVXVXVXVXVXVXVXVXVXVXVXVX",
"VXVXmXVXVXVXVXVXVXVXVXVXVXVXVXVXVXVXVXMXVXVXMXVXVXVXVXvXVXmXgXnXVXBXVXVXVXmXmXmXmXmXzXVXNXVXBXcXVXVXVXVXVXVXVXVXVXVXVXVXVXVXVXVX",
"VXVXVXVXVXVXVXVXVXVXVXVXVXVXVXVXVXVXVXVXVXVXVXVXVXVXVXBXVXmXBXVXVXVXVXVXVXVXVXmXVXVXVXVXVXVXVXVXVXVXVXVXVXVXVXVXVXVXVXVXVXVXVXVX",
"VXVXVXVXVXVXVXVXVXVXVXVXVXVXVXVXVXVXVXVXVXVXVXVXVXBXVXVXVXBXVXBXBXVXVXVXmXVXVXVXVXmXVXVXVXVXVXVXVXVXVXVXVXVXVXVXVXVXVXVXVXVXVXVX",
"VXVXVXVXVXVXVXVXVXVXVXVXVXVXVXVXVXVXVXVXVXVXVXVXVXVXBXVXBXVXVXVXBXVXVXmXVXVXVXVXVXmXVXVXVXVXVXVXVXVXVXVXVXVXVXVXVXVXVXVXVXVXVXVX",
"VXVXVXVXVXVXVXVXVXVXVXVXVXVXVXVXVXVXVXVXVXVXVXVXVXVXVXVXVXVXBXVXVXVXmXVXmXVXVXVXVXVXVXVXmXVXVXVXVXVXVXVXVXVXVXVXVXVXVXVXVXVXVXVX",
"VXVXVXVXVXVXVXVXVXVXVXVXVXVXVXVXVXVXVXVXVXVXVXVXBXVXVXVXBXVXVXBXVXVXVXVXVXmXVXVXVXVXVXVXVXVXVXVXVXVXVXVXVXVXVXVXVXVXVXVXVXVXVXVX",
"VXVXVXVXVXVXVXVXVXVXVXVXVXVXVXVXVXVXVXVXVXVXVXVXVXVXVXVXVXVXVXVXVXVXVXVXVXVXVXVXmXVXVXVXVXVXVXVXVXVXVXVXVXVXVXVXVXVXVXVXVXVXVXVX"
};
